<svg width="135" height="135" viewBox="0 0 135 135" fill="none" xmlns="http://www.w3.org/2000/svg">
<path d="M77.8358 126.167C75.4187 126.941 73.1458 128.108 71.1084 129.622C79.7319 115.336 70.6753 113.789 58.2043 112.595C56.6083 112.329 52.1847 111.522 54.3804 109.344C64.2511 104.689 76.2154 107.333 86.3759 102.837C87.9508 102.328 89.3285 101.341 90.3187 100.015C91.3088 98.6886 91.8624 97.0874 91.903 95.4327C91.9436 93.7779 91.4691 92.1515 90.5451 90.7781C89.6211 89.4048 88.2933 88.3524 86.7453 87.7665C78.0699 84.3732 68.6168 85.796 59.7175 84.0667C44.2691 82.7943 37.5843 66.6993 51.2607 57.3376C57.2368 63.5647 72.959 71.283 77.3227 59.7263C78.1319 46.0115 58.657 47.4982 50.7178 52.9851C35.3232 34.2754 50.1664 13.8315 66.9811 2.68318L66.6876 2.21864C48.5842 13.0881 33.3506 34.5464 48.6285 54.3176C36.4003 61.8448 36.3051 79.8517 49.7074 86.1507C59.4457 90.9361 70.4406 90.0418 80.753 91.8679C83.0805 92.4092 87.0937 93.1486 86.1589 96.1584C82.8091 99.6139 76.5993 99.7167 71.901 100.74C65.8786 101.757 59.6612 102.106 53.9263 104.615C49.3773 106.197 47.8302 112.804 52.7989 114.972C62.6911 118.777 78.5465 111.826 70.1799 129.287C70.3271 126.707 69.5606 123.525 67.1229 122.194L66.9878 122.356C68.5271 125.376 67.8563 128.491 68.0613 131.688C68.0655 131.971 68.1594 132.246 68.3295 132.473C68.4996 132.7 68.7372 132.867 69.0082 132.95C69.2791 133.033 69.5695 133.028 69.8376 132.936C70.1057 132.844 70.3377 132.67 70.5004 132.438C72.4717 129.897 75.1095 127.973 77.9139 126.402L77.8358 126.167ZM59.1438 53.4517C83.57 47.8738 75.8756 74.6336 53.504 55.8864C55.2852 54.8628 57.1774 54.046 59.1438 53.4517ZM69.1419 131.387C69.1317 131.406 69.1203 131.413 69.1419 131.387Z" fill="#E58411"/>
<path d="M57.1407 19.5404C53.2486 25.048 50.1754 33.952 50.9048 40.701C50.9049 40.7142 50.9005 40.727 50.8925 40.7375C50.8844 40.748 50.873 40.7554 50.8602 40.7587C50.8473 40.7619 50.8338 40.7607 50.8217 40.7553C50.8096 40.7499 50.7997 40.7407 50.7935 40.729C48.4214 34.2571 51.9015 23.9241 57.0451 19.4771C57.0549 19.4682 57.0673 19.4628 57.0804 19.4618C57.0935 19.4608 57.1066 19.4642 57.1176 19.4714C57.1286 19.4787 57.1368 19.4894 57.141 19.5019C57.1452 19.5144 57.1451 19.5279 57.1407 19.5404Z" fill="#F3A60D"/>
<path d="M61.1253 14.5275C60.6401 15.7061 59.8251 16.7196 58.778 17.4463C58.7375 17.4756 58.688 17.4899 58.6381 17.4867C58.5882 17.4835 58.5409 17.4629 58.5045 17.4287C58.4681 17.3944 58.4447 17.3484 58.4385 17.2988C58.4323 17.2492 58.4436 17.1989 58.4704 17.1567C59.0452 16.0523 59.8316 15.0718 60.7848 14.2708C60.8213 14.2336 60.8702 14.211 60.9222 14.2071C60.9742 14.2033 61.0259 14.2184 61.0676 14.2498C61.1092 14.2812 61.1381 14.3267 61.1487 14.3778C61.1593 14.4289 61.151 14.4821 61.1253 14.5275Z" fill="#F3A60D"/>
<path d="M64.6574 77.9946C65.1721 77.7582 65.7323 77.6376 66.2986 77.6413C66.8649 77.645 67.4235 77.7729 67.935 78.0159C67.9859 78.0418 68.0286 78.0812 68.0587 78.1297C68.0887 78.1782 68.1049 78.234 68.1054 78.2911C68.1059 78.3482 68.0908 78.4043 68.0617 78.4534C68.0325 78.5024 67.9905 78.5425 67.9401 78.5694C67.4256 78.8061 66.8653 78.9268 66.299 78.9231C65.7326 78.9195 65.1739 78.7914 64.6625 78.5481C64.6128 78.5212 64.5713 78.4815 64.5421 78.4331C64.513 78.3847 64.4974 78.3293 64.4968 78.2728C64.4963 78.2163 64.511 78.1607 64.5392 78.1118C64.5674 78.0629 64.6083 78.0224 64.6574 77.9946Z" fill="#F3A60D"/>
<path d="M69.8306 78.2845C77.8147 77.207 91.3555 78.2445 94.2961 86.7999C94.3113 86.8323 94.3134 86.8692 94.3021 86.9032C94.2908 86.9371 94.2668 86.9653 94.2352 86.982C94.2036 86.9987 94.1668 87.0026 94.1324 86.9929C94.0979 86.9832 94.0686 86.9607 94.0504 86.9299C88.8608 80.1945 77.7806 80.2103 69.8061 78.5772C69.7673 78.5739 69.7314 78.5554 69.7062 78.5256C69.6811 78.4959 69.6688 78.4574 69.672 78.4186C69.6753 78.3798 69.6938 78.3439 69.7235 78.3187C69.7533 78.2936 69.7918 78.2813 69.8306 78.2845Z" fill="#F3A60D"/>
</svg>
