<svg width="93" height="99" viewBox="0 0 93 99" fill="none" xmlns="http://www.w3.org/2000/svg">
<path d="M92.1086 88.0322C90.7486 90.1751 89.7512 92.5276 89.1564 94.9949C86.6261 78.501 78.6806 83.1148 68.3398 90.1872C66.9439 91.0054 63.0302 93.2195 63.3212 90.1408C67.9181 80.2428 78.7987 74.6085 83.7203 64.6472C84.6033 63.2471 85.0295 61.6073 84.9401 59.9545C84.8506 58.3017 84.2499 56.7175 83.221 55.421C82.1921 54.1244 80.7858 53.1795 79.1965 52.7169C77.6072 52.2543 75.9135 52.2969 74.3495 52.8387C65.5142 55.7908 59.1671 62.9392 51.2259 67.3125C38.5487 76.2321 23.1049 68.156 27.609 52.2061C36.187 53.1592 53.2039 49.0136 49.151 37.3443C40.9863 26.2949 26.9849 39.9126 24.4039 49.2118C0.597135 44.7077 -1.10244 19.5008 4.66685 0.16869L4.1439 0C-2.79357 19.9437 -0.743982 46.1796 23.6532 51.5735C19.0858 65.187 30.5485 79.0746 44.8747 75.3254C55.418 72.7613 63.2875 65.0309 72.3758 59.8268C74.5097 58.7514 78.0649 56.7481 79.2753 59.6581C78.9168 64.4574 74.2145 68.5144 71.2624 72.31C67.2897 76.9491 62.7392 81.2001 59.9431 86.8007C57.4634 90.9295 60.5083 96.9939 65.7124 95.4757C75.7454 92.0597 83.4673 76.5653 88.2286 95.3323C86.6893 93.2574 84.0619 91.3048 81.3376 91.8446V92.0555C84.4541 93.3881 85.9344 96.2095 88.1401 98.5333C88.3249 98.7482 88.573 98.899 88.8489 98.9641C89.1248 99.0293 89.4142 99.0053 89.6756 98.8957C89.937 98.786 90.157 98.5964 90.3039 98.354C90.4508 98.1116 90.5171 97.8289 90.4933 97.5464C90.3795 94.3328 91.1723 91.1656 92.3194 88.1629L92.1086 88.0322ZM31.1726 44.1721C46.355 24.2411 57.5899 49.7179 28.4019 49.6546C29.1138 47.7276 30.0434 45.8882 31.1726 44.1721ZM88.7769 97.6097C88.7811 97.6307 88.7769 97.6434 88.7769 97.6097Z" fill="#F3A60D"/>
<path d="M7.91031 19.4164C8.45013 26.1388 11.7944 34.9446 16.6781 39.6595C16.6866 39.6696 16.6916 39.6823 16.692 39.6955C16.6925 39.7087 16.6886 39.7217 16.6808 39.7324C16.673 39.7431 16.6619 39.7509 16.6491 39.7545C16.6364 39.7581 16.6229 39.7573 16.6106 39.7523C10.6431 36.3026 6.69572 26.1388 7.79644 19.4291C7.7982 19.416 7.80426 19.4039 7.81368 19.3947C7.82311 19.3855 7.83534 19.3797 7.84843 19.3783C7.86152 19.3768 7.87473 19.3798 7.88594 19.3867C7.89715 19.3936 7.90573 19.4041 7.91031 19.4164Z" fill="#F3A60D"/>
<path d="M7.75825 13.0146C8.14072 14.2304 8.16417 15.5308 7.82575 16.7596C7.81341 16.8081 7.78457 16.8508 7.74417 16.8803C7.70378 16.9098 7.65436 16.9243 7.60443 16.9213C7.55449 16.9183 7.50716 16.898 7.47058 16.8638C7.434 16.8297 7.41046 16.7839 7.40401 16.7343C7.13792 15.5181 7.11357 14.2614 7.33233 13.0357C7.33659 12.9837 7.35958 12.935 7.39706 12.8988C7.43455 12.8625 7.48393 12.841 7.53604 12.8385C7.58814 12.8359 7.63943 12.8523 7.68031 12.8847C7.72119 12.9172 7.74888 12.9633 7.75825 13.0146Z" fill="#F3A60D"/>
<path d="M51.1292 59.4852C51.373 58.974 51.7259 58.5225 52.1631 58.1625C52.6003 57.8026 53.1112 57.5429 53.6596 57.4018C53.7153 57.3892 53.7733 57.392 53.8275 57.41C53.8816 57.428 53.9298 57.4605 53.9667 57.504C54.0037 57.5475 54.028 57.6003 54.0371 57.6566C54.0461 57.713 54.0396 57.7707 54.0181 57.8236C53.7746 58.3349 53.4218 58.7866 52.9845 59.1466C52.5473 59.5066 52.0363 59.7661 51.4877 59.9069C51.4323 59.9181 51.375 59.9142 51.3216 59.8957C51.2682 59.8772 51.2208 59.8448 51.1842 59.8017C51.1476 59.7587 51.1232 59.7066 51.1135 59.6509C51.1039 59.5953 51.1093 59.5381 51.1292 59.4852Z" fill="#F3A60D"/>
<path d="M55.2871 56.3939C60.7274 50.4517 71.7895 42.5737 79.5282 47.2592C79.5606 47.2743 79.5859 47.3013 79.599 47.3346C79.612 47.3679 79.6117 47.405 79.5981 47.438C79.5845 47.4711 79.5588 47.4977 79.5261 47.5123C79.4935 47.5269 79.4565 47.5284 79.4228 47.5164C71.1231 45.6692 62.6252 52.7796 55.4558 56.6342C55.4239 56.6566 55.3845 56.6654 55.3461 56.6587C55.3077 56.652 55.2736 56.6303 55.2513 56.5984C55.2289 56.5665 55.2201 56.5271 55.2268 56.4887C55.2335 56.4504 55.2552 56.4162 55.2871 56.3939Z" fill="#F3A60D"/>
</svg>
