<svg width="156" height="41" viewBox="0 0 156 41" fill="none" xmlns="http://www.w3.org/2000/svg">
<mask id="path-1-outside-1_292_762" maskUnits="userSpaceOnUse" x="-0.5" y="-0.461914" width="42" height="42" fill="black">
<rect fill="white" x="-0.5" y="-0.461914" width="42" height="42"/>
<path d="M40.5 20.6039C40.5 20.547 40.5 20.547 40.5 20.4901C40.5 20.4332 40.5 20.3763 40.5 20.3763L34.8101 6.60675C34.7532 6.49296 34.6394 6.37916 34.5256 6.32226L20.756 0.632359C20.5853 0.518561 20.4147 0.518561 20.3009 0.57546L6.5313 6.26536C6.4175 6.32226 6.3037 6.43606 6.2468 6.54986L0.556899 20.3194C0.5 20.3763 0.5 20.4332 0.5 20.4332C0.5 20.4901 0.5 20.4901 0.5 20.547C0.5 20.6039 0.5 20.6608 0.5 20.6608L6.1899 34.4304C6.2468 34.5442 6.3606 34.658 6.4744 34.7149L20.244 40.4048C20.3009 40.4048 20.3578 40.4617 20.4147 40.4617C20.4716 40.4617 20.5284 40.4617 20.5853 40.4048L34.3549 34.7149C34.4687 34.658 34.5825 34.5442 34.6394 34.4304L40.3293 20.6608C40.5 20.6608 40.5 20.6039 40.5 20.6039ZM17.4559 36.2511H17.5128C19.4474 36.2511 20.9836 34.658 20.9836 32.7803V28.2853L28.1529 21.116H32.6479C34.0135 21.116 35.0946 22.1971 35.0946 23.5627C35.0946 24.9282 34.0135 26.0093 32.6479 26.0093C31.2824 26.0093 30.2013 24.9282 30.2013 23.5627C30.2013 23.2782 29.9737 23.0506 29.6892 23.0506C29.4047 23.0506 29.1771 23.2782 29.1771 23.5627C29.1771 25.4972 30.7703 27.0335 32.6479 27.0335H32.7048L20.4716 39.2668L17.4559 36.2511ZM23.5441 4.78599H23.4872C21.5526 4.78599 20.0164 6.37916 20.0164 8.25683V12.7518L12.7902 19.978H8.29516C6.92959 19.978 5.84851 18.8969 5.84851 17.5314C5.84851 16.1658 6.92959 15.0847 8.29516 15.0847C9.66074 15.0847 10.7418 16.1658 10.7418 17.5314C10.7418 17.8159 10.9694 18.0435 11.2539 18.0435C11.5384 18.0435 11.766 17.8159 11.766 17.5314C11.766 15.5968 10.1728 14.0605 8.29516 14.0605H8.23826L20.4716 1.77034L23.5441 4.78599ZM19.9595 21.0591V26.8059L14.2696 21.0591H19.9595ZM14.2696 19.978L20.0164 14.2312V19.978H14.2696ZM21.0405 21.0591H26.7873L21.0405 26.749V21.0591ZM21.0405 19.978V14.2881L26.7873 20.0349H21.0405V19.978ZM8.29516 21.0591H12.7902L19.9595 28.2284V32.7234C19.9595 34.089 18.8784 35.1701 17.5128 35.1701C16.1472 35.1701 15.0661 34.089 15.0661 32.7234C15.0661 31.3578 16.1472 30.2767 17.5128 30.2767C17.7973 30.2767 18.0249 30.0491 18.0249 29.7646C18.0249 29.4802 17.7973 29.2526 17.5128 29.2526C15.5782 29.2526 14.042 30.8457 14.042 32.7234V32.7803L1.75178 20.547L4.76743 17.5314V17.5883C4.76743 19.4659 6.3606 21.0591 8.29516 21.0591ZM32.7048 19.978H28.2098L21.0405 12.8087V8.31372C21.0405 6.94815 22.1216 5.86707 23.4872 5.86707C24.8528 5.86707 25.9339 6.94815 25.9339 8.31372C25.9339 9.6793 24.8528 10.7604 23.4872 10.7604C23.2027 10.7604 22.9751 10.988 22.9751 11.2725C22.9751 11.557 23.2027 11.7846 23.4872 11.7846C25.4218 11.7846 26.958 10.1914 26.958 8.31372V8.25683L39.2482 20.547L36.2326 23.5627V23.5058C36.2326 21.5712 34.6394 19.978 32.7048 19.978ZM38.5085 18.3279L22.6906 2.51003L33.8428 7.11885L38.5085 18.3279ZM7.10028 7.11885L18.2525 2.51003L2.49147 18.3279L7.10028 7.11885ZM2.49147 22.7092L18.3094 38.5271L7.15718 33.9183L2.49147 22.7092ZM33.8997 33.9183L22.6906 38.5271L38.5085 22.7092L33.8997 33.9183Z"/>
</mask>
<path d="M40.5 20.6039C40.5 20.547 40.5 20.547 40.5 20.4901C40.5 20.4332 40.5 20.3763 40.5 20.3763L34.8101 6.60675C34.7532 6.49296 34.6394 6.37916 34.5256 6.32226L20.756 0.632359C20.5853 0.518561 20.4147 0.518561 20.3009 0.57546L6.5313 6.26536C6.4175 6.32226 6.3037 6.43606 6.2468 6.54986L0.556899 20.3194C0.5 20.3763 0.5 20.4332 0.5 20.4332C0.5 20.4901 0.5 20.4901 0.5 20.547C0.5 20.6039 0.5 20.6608 0.5 20.6608L6.1899 34.4304C6.2468 34.5442 6.3606 34.658 6.4744 34.7149L20.244 40.4048C20.3009 40.4048 20.3578 40.4617 20.4147 40.4617C20.4716 40.4617 20.5284 40.4617 20.5853 40.4048L34.3549 34.7149C34.4687 34.658 34.5825 34.5442 34.6394 34.4304L40.3293 20.6608C40.5 20.6608 40.5 20.6039 40.5 20.6039ZM17.4559 36.2511H17.5128C19.4474 36.2511 20.9836 34.658 20.9836 32.7803V28.2853L28.1529 21.116H32.6479C34.0135 21.116 35.0946 22.1971 35.0946 23.5627C35.0946 24.9282 34.0135 26.0093 32.6479 26.0093C31.2824 26.0093 30.2013 24.9282 30.2013 23.5627C30.2013 23.2782 29.9737 23.0506 29.6892 23.0506C29.4047 23.0506 29.1771 23.2782 29.1771 23.5627C29.1771 25.4972 30.7703 27.0335 32.6479 27.0335H32.7048L20.4716 39.2668L17.4559 36.2511ZM23.5441 4.78599H23.4872C21.5526 4.78599 20.0164 6.37916 20.0164 8.25683V12.7518L12.7902 19.978H8.29516C6.92959 19.978 5.84851 18.8969 5.84851 17.5314C5.84851 16.1658 6.92959 15.0847 8.29516 15.0847C9.66074 15.0847 10.7418 16.1658 10.7418 17.5314C10.7418 17.8159 10.9694 18.0435 11.2539 18.0435C11.5384 18.0435 11.766 17.8159 11.766 17.5314C11.766 15.5968 10.1728 14.0605 8.29516 14.0605H8.23826L20.4716 1.77034L23.5441 4.78599ZM19.9595 21.0591V26.8059L14.2696 21.0591H19.9595ZM14.2696 19.978L20.0164 14.2312V19.978H14.2696ZM21.0405 21.0591H26.7873L21.0405 26.749V21.0591ZM21.0405 19.978V14.2881L26.7873 20.0349H21.0405V19.978ZM8.29516 21.0591H12.7902L19.9595 28.2284V32.7234C19.9595 34.089 18.8784 35.1701 17.5128 35.1701C16.1472 35.1701 15.0661 34.089 15.0661 32.7234C15.0661 31.3578 16.1472 30.2767 17.5128 30.2767C17.7973 30.2767 18.0249 30.0491 18.0249 29.7646C18.0249 29.4802 17.7973 29.2526 17.5128 29.2526C15.5782 29.2526 14.042 30.8457 14.042 32.7234V32.7803L1.75178 20.547L4.76743 17.5314V17.5883C4.76743 19.4659 6.3606 21.0591 8.29516 21.0591ZM32.7048 19.978H28.2098L21.0405 12.8087V8.31372C21.0405 6.94815 22.1216 5.86707 23.4872 5.86707C24.8528 5.86707 25.9339 6.94815 25.9339 8.31372C25.9339 9.6793 24.8528 10.7604 23.4872 10.7604C23.2027 10.7604 22.9751 10.988 22.9751 11.2725C22.9751 11.557 23.2027 11.7846 23.4872 11.7846C25.4218 11.7846 26.958 10.1914 26.958 8.31372V8.25683L39.2482 20.547L36.2326 23.5627V23.5058C36.2326 21.5712 34.6394 19.978 32.7048 19.978ZM38.5085 18.3279L22.6906 2.51003L33.8428 7.11885L38.5085 18.3279ZM7.10028 7.11885L18.2525 2.51003L2.49147 18.3279L7.10028 7.11885ZM2.49147 22.7092L18.3094 38.5271L7.15718 33.9183L2.49147 22.7092ZM33.8997 33.9183L22.6906 38.5271L38.5085 22.7092L33.8997 33.9183Z" fill="#E58411"/>
<path d="M40.5 20.6039C40.5 20.547 40.5 20.547 40.5 20.4901C40.5 20.4332 40.5 20.3763 40.5 20.3763L34.8101 6.60675C34.7532 6.49296 34.6394 6.37916 34.5256 6.32226L20.756 0.632359C20.5853 0.518561 20.4147 0.518561 20.3009 0.57546L6.5313 6.26536C6.4175 6.32226 6.3037 6.43606 6.2468 6.54986L0.556899 20.3194C0.5 20.3763 0.5 20.4332 0.5 20.4332C0.5 20.4901 0.5 20.4901 0.5 20.547C0.5 20.6039 0.5 20.6608 0.5 20.6608L6.1899 34.4304C6.2468 34.5442 6.3606 34.658 6.4744 34.7149L20.244 40.4048C20.3009 40.4048 20.3578 40.4617 20.4147 40.4617C20.4716 40.4617 20.5284 40.4617 20.5853 40.4048L34.3549 34.7149C34.4687 34.658 34.5825 34.5442 34.6394 34.4304L40.3293 20.6608C40.5 20.6608 40.5 20.6039 40.5 20.6039ZM17.4559 36.2511H17.5128C19.4474 36.2511 20.9836 34.658 20.9836 32.7803V28.2853L28.1529 21.116H32.6479C34.0135 21.116 35.0946 22.1971 35.0946 23.5627C35.0946 24.9282 34.0135 26.0093 32.6479 26.0093C31.2824 26.0093 30.2013 24.9282 30.2013 23.5627C30.2013 23.2782 29.9737 23.0506 29.6892 23.0506C29.4047 23.0506 29.1771 23.2782 29.1771 23.5627C29.1771 25.4972 30.7703 27.0335 32.6479 27.0335H32.7048L20.4716 39.2668L17.4559 36.2511ZM23.5441 4.78599H23.4872C21.5526 4.78599 20.0164 6.37916 20.0164 8.25683V12.7518L12.7902 19.978H8.29516C6.92959 19.978 5.84851 18.8969 5.84851 17.5314C5.84851 16.1658 6.92959 15.0847 8.29516 15.0847C9.66074 15.0847 10.7418 16.1658 10.7418 17.5314C10.7418 17.8159 10.9694 18.0435 11.2539 18.0435C11.5384 18.0435 11.766 17.8159 11.766 17.5314C11.766 15.5968 10.1728 14.0605 8.29516 14.0605H8.23826L20.4716 1.77034L23.5441 4.78599ZM19.9595 21.0591V26.8059L14.2696 21.0591H19.9595ZM14.2696 19.978L20.0164 14.2312V19.978H14.2696ZM21.0405 21.0591H26.7873L21.0405 26.749V21.0591ZM21.0405 19.978V14.2881L26.7873 20.0349H21.0405V19.978ZM8.29516 21.0591H12.7902L19.9595 28.2284V32.7234C19.9595 34.089 18.8784 35.1701 17.5128 35.1701C16.1472 35.1701 15.0661 34.089 15.0661 32.7234C15.0661 31.3578 16.1472 30.2767 17.5128 30.2767C17.7973 30.2767 18.0249 30.0491 18.0249 29.7646C18.0249 29.4802 17.7973 29.2526 17.5128 29.2526C15.5782 29.2526 14.042 30.8457 14.042 32.7234V32.7803L1.75178 20.547L4.76743 17.5314V17.5883C4.76743 19.4659 6.3606 21.0591 8.29516 21.0591ZM32.7048 19.978H28.2098L21.0405 12.8087V8.31372C21.0405 6.94815 22.1216 5.86707 23.4872 5.86707C24.8528 5.86707 25.9339 6.94815 25.9339 8.31372C25.9339 9.6793 24.8528 10.7604 23.4872 10.7604C23.2027 10.7604 22.9751 10.988 22.9751 11.2725C22.9751 11.557 23.2027 11.7846 23.4872 11.7846C25.4218 11.7846 26.958 10.1914 26.958 8.31372V8.25683L39.2482 20.547L36.2326 23.5627V23.5058C36.2326 21.5712 34.6394 19.978 32.7048 19.978ZM38.5085 18.3279L22.6906 2.51003L33.8428 7.11885L38.5085 18.3279ZM7.10028 7.11885L18.2525 2.51003L2.49147 18.3279L7.10028 7.11885ZM2.49147 22.7092L18.3094 38.5271L7.15718 33.9183L2.49147 22.7092ZM33.8997 33.9183L22.6906 38.5271L38.5085 22.7092L33.8997 33.9183Z" stroke="#E58411" stroke-width="0.5" mask="url(#path-1-outside-1_292_762)"/>
<path d="M56.9725 29.1C56.1992 29.1 55.3258 29.0333 54.3525 28.9C53.8192 28.8333 53.4525 28.6933 53.2525 28.48C53.0525 28.2667 52.9658 27.92 52.9925 27.44C53.0858 26.12 53.3058 24.4933 53.6525 22.56C53.9992 20.6133 54.4192 18.74 54.9125 16.94C55.0058 16.6067 55.1925 16.3733 55.4725 16.24C55.7525 16.1067 56.1192 16.04 56.5725 16.04C57.3858 16.04 57.7925 16.2667 57.7925 16.72C57.7925 16.9067 57.7525 17.12 57.6725 17.36C57.3258 18.4267 56.9792 19.86 56.6325 21.66C56.2858 23.4467 56.0392 25.1533 55.8925 26.78C56.2925 26.82 56.7458 26.84 57.2525 26.84C59.5858 26.84 61.3258 26.1333 62.4725 24.72C63.6325 23.3067 64.2125 21.42 64.2125 19.06C64.2125 17.4733 63.7592 16.2467 62.8525 15.38C61.9458 14.5133 60.6658 14.08 59.0125 14.08C57.9458 14.08 56.8858 14.2467 55.8325 14.58C54.7925 14.9133 53.8525 15.3533 53.0125 15.9C52.8392 16.02 52.6525 16.08 52.4525 16.08C52.2258 16.08 52.0458 15.9867 51.9125 15.8C51.7792 15.6 51.7125 15.36 51.7125 15.08C51.7125 14.76 51.7658 14.5 51.8725 14.3C51.9792 14.0867 52.1592 13.8933 52.4125 13.72C53.3325 13.0933 54.4125 12.62 55.6525 12.3C56.8925 11.9667 58.0858 11.8 59.2325 11.8C60.8592 11.8 62.2658 12.0867 63.4525 12.66C64.6392 13.22 65.5525 14.0467 66.1925 15.14C66.8325 16.2333 67.1525 17.5533 67.1525 19.1C67.1525 21.1133 66.7525 22.8733 65.9525 24.38C65.1525 25.8733 63.9858 27.0333 62.4525 27.86C60.9192 28.6867 59.0925 29.1 56.9725 29.1ZM70.9159 18.36C70.3559 18.36 69.9359 18.2333 69.6559 17.98C69.3759 17.7133 69.2359 17.3467 69.2359 16.88C69.2359 16.4133 69.4159 16.0267 69.7759 15.72C70.1493 15.4 70.6093 15.24 71.1559 15.24C71.6493 15.24 72.0493 15.36 72.3559 15.6C72.6626 15.84 72.8159 16.18 72.8159 16.62C72.8159 17.1533 72.6426 17.58 72.2959 17.9C71.9493 18.2067 71.4893 18.36 70.9159 18.36ZM70.7559 29.1C69.8893 29.1 69.2559 28.7933 68.8559 28.18C68.4693 27.5667 68.2759 26.7533 68.2759 25.74C68.2759 25.14 68.3493 24.3733 68.4959 23.44C68.6559 22.4933 68.8559 21.6133 69.0959 20.8C69.2159 20.3733 69.3759 20.08 69.5759 19.92C69.7759 19.76 70.0959 19.68 70.5359 19.68C71.2159 19.68 71.5559 19.9067 71.5559 20.36C71.5559 20.6933 71.4293 21.4667 71.1759 22.68C70.8559 24.1467 70.6959 25.14 70.6959 25.66C70.6959 26.06 70.7493 26.3667 70.8559 26.58C70.9626 26.7933 71.1426 26.9 71.3959 26.9C71.6359 26.9 71.9359 26.7333 72.2959 26.4C72.6559 26.0667 73.1359 25.54 73.7359 24.82C73.8959 24.6333 74.0759 24.54 74.2759 24.54C74.4493 24.54 74.5826 24.62 74.6759 24.78C74.7826 24.94 74.8359 25.16 74.8359 25.44C74.8359 25.9733 74.7093 26.3867 74.4559 26.68C73.1359 28.2933 71.9026 29.1 70.7559 29.1ZM83.8578 22.86C84.0311 22.86 84.1645 22.9467 84.2578 23.12C84.3511 23.2933 84.3978 23.5133 84.3978 23.78C84.3978 24.1133 84.3511 24.3733 84.2578 24.56C84.1645 24.7333 84.0178 24.8533 83.8178 24.92C83.0178 25.2 82.1378 25.36 81.1778 25.4C80.9111 26.5067 80.4045 27.4 79.6578 28.08C78.9245 28.76 78.1111 29.1 77.2178 29.1C75.8711 29.1 74.8911 28.5867 74.2778 27.56C73.6645 26.5333 73.3578 25.0467 73.3578 23.1C73.3578 21.38 73.5711 19.5133 73.9978 17.5C74.4245 15.4733 75.0445 13.7533 75.8578 12.34C76.6845 10.9133 77.6645 10.2 78.7978 10.2C79.4111 10.2 79.9045 10.4667 80.2778 11C80.6511 11.52 80.8378 12.2 80.8378 13.04C80.8378 14.1333 80.6311 15.22 80.2178 16.3C79.8045 17.38 79.1178 18.5133 78.1578 19.7C79.0511 19.7667 79.7778 20.14 80.3378 20.82C80.8978 21.4867 81.2311 22.3133 81.3378 23.3C81.9645 23.26 82.7111 23.1267 83.5778 22.9C83.6578 22.8733 83.7511 22.86 83.8578 22.86ZM78.3378 12.18C78.0711 12.18 77.7778 12.58 77.4578 13.38C77.1511 14.1667 76.8645 15.24 76.5978 16.6C76.3311 17.96 76.1311 19.4467 75.9978 21.06C76.8778 19.4467 77.5778 18.0267 78.0978 16.8C78.6311 15.56 78.8978 14.46 78.8978 13.5C78.8978 13.0733 78.8445 12.7467 78.7378 12.52C78.6445 12.2933 78.5111 12.18 78.3378 12.18ZM77.2978 26.98C77.7111 26.98 78.0778 26.8067 78.3978 26.46C78.7178 26.1133 78.9311 25.6133 79.0378 24.96C78.6245 24.68 78.3045 24.3133 78.0778 23.86C77.8645 23.4067 77.7578 22.9267 77.7578 22.42C77.7578 22.2333 77.7845 21.98 77.8378 21.66H77.7778C77.2311 21.66 76.7711 21.9333 76.3978 22.48C76.0378 23.0133 75.8578 23.7333 75.8578 24.64C75.8578 25.4 75.9978 25.98 76.2778 26.38C76.5711 26.78 76.9111 26.98 77.2978 26.98ZM85.1309 29.1C84.3043 29.1 83.6443 28.8 83.1509 28.2C82.6576 27.6 82.4109 26.8133 82.4109 25.84C82.4109 24.7733 82.6576 23.7667 83.1509 22.82C83.6443 21.86 84.2976 21.0933 85.1109 20.52C85.9376 19.9333 86.8109 19.64 87.7309 19.64C88.0243 19.64 88.2176 19.7 88.3109 19.82C88.4176 19.9267 88.5043 20.1267 88.5709 20.42C88.8509 20.3667 89.1443 20.34 89.4509 20.34C90.1043 20.34 90.4309 20.5733 90.4309 21.04C90.4309 21.32 90.3309 21.9867 90.1309 23.04C89.8243 24.5733 89.6709 25.64 89.6709 26.24C89.6709 26.44 89.7176 26.6 89.8109 26.72C89.9176 26.84 90.0509 26.9 90.2109 26.9C90.4643 26.9 90.7709 26.74 91.1309 26.42C91.4909 26.0867 91.9776 25.5533 92.5909 24.82C92.7509 24.6333 92.9309 24.54 93.1309 24.54C93.3043 24.54 93.4376 24.62 93.5309 24.78C93.6376 24.94 93.6909 25.16 93.6909 25.44C93.6909 25.9733 93.5643 26.3867 93.3109 26.68C92.7643 27.36 92.1843 27.9333 91.5709 28.4C90.9576 28.8667 90.3643 29.1 89.7909 29.1C89.3509 29.1 88.9443 28.9533 88.5709 28.66C88.2109 28.3533 87.9376 27.94 87.7509 27.42C87.0576 28.54 86.1843 29.1 85.1309 29.1ZM85.8509 27.08C86.1443 27.08 86.4243 26.9067 86.6909 26.56C86.9576 26.2133 87.1509 25.7533 87.2709 25.18L88.0109 21.5C87.4509 21.5133 86.9309 21.7267 86.4509 22.14C85.9843 22.54 85.6109 23.0733 85.3309 23.74C85.0509 24.4067 84.9109 25.1133 84.9109 25.86C84.9109 26.2733 84.9909 26.58 85.1509 26.78C85.3243 26.98 85.5576 27.08 85.8509 27.08ZM108.945 24.58C109.119 24.58 109.252 24.6667 109.345 24.84C109.452 25 109.505 25.2067 109.505 25.46C109.505 25.7667 109.459 26.0067 109.365 26.18C109.272 26.3533 109.125 26.5067 108.925 26.64C108.139 27.16 106.885 28.0133 105.165 29.2C104.645 31.96 103.972 34.1333 103.145 35.72C102.319 37.3067 101.272 38.1 100.005 38.1C99.3255 38.1 98.7721 37.8867 98.3455 37.46C97.9188 37.0467 97.7055 36.5 97.7055 35.82C97.7055 35.1933 97.8455 34.56 98.1255 33.92C98.4055 33.28 98.9255 32.54 99.6855 31.7C100.459 30.86 101.545 29.9 102.945 28.82L103.005 28.44C101.952 28.88 100.919 29.1 99.9055 29.1C98.4121 29.1 97.0988 28.8133 95.9655 28.24C94.8321 27.6533 93.9521 26.8267 93.3255 25.76C92.6988 24.6933 92.3855 23.4533 92.3855 22.04C92.3855 20.0667 92.7588 18.3267 93.5055 16.82C94.2521 15.3 95.2788 14.1267 96.5855 13.3C97.9055 12.46 99.3788 12.04 101.005 12.04C102.565 12.04 103.732 12.4067 104.505 13.14C105.292 13.86 105.685 14.82 105.685 16.02C105.685 16.8067 105.539 17.44 105.245 17.92C104.965 18.3867 104.559 18.62 104.025 18.62C103.665 18.62 103.372 18.5333 103.145 18.36C102.932 18.1867 102.825 17.9467 102.825 17.64C102.825 17.5067 102.852 17.28 102.905 16.96C102.985 16.5867 103.025 16.2933 103.025 16.08C103.025 15.52 102.852 15.0867 102.505 14.78C102.172 14.4733 101.605 14.32 100.805 14.32C99.8321 14.32 98.9255 14.6 98.0855 15.16C97.2588 15.72 96.5921 16.56 96.0855 17.68C95.5788 18.7867 95.3255 20.12 95.3255 21.68C95.3255 23.28 95.7588 24.52 96.6255 25.4C97.5055 26.2667 98.7721 26.7 100.425 26.7C101.345 26.7 102.305 26.4933 103.305 26.08L103.585 23.64H101.545C101.172 23.64 100.885 23.5533 100.685 23.38C100.485 23.1933 100.385 22.8933 100.385 22.48C100.385 22.1067 100.485 21.8133 100.685 21.6C100.885 21.3867 101.152 21.28 101.485 21.28H105.225C105.519 21.28 105.759 21.38 105.945 21.58C106.145 21.7667 106.225 22.04 106.185 22.4C106.145 22.8267 106.012 23.7933 105.785 25.3L105.565 26.82C106.632 26.02 107.605 25.3267 108.485 24.74C108.659 24.6333 108.812 24.58 108.945 24.58ZM100.225 36.16C100.572 36.16 100.952 35.7667 101.365 34.98C101.779 34.1933 102.165 32.9267 102.525 31.18C101.512 32.0467 100.779 32.8267 100.325 33.52C99.8855 34.2267 99.6655 34.8467 99.6655 35.38C99.6655 35.9 99.8521 36.16 100.225 36.16ZM110.541 29.1C109.714 29.1 109.054 28.8 108.561 28.2C108.068 27.6 107.821 26.8133 107.821 25.84C107.821 24.7733 108.068 23.7667 108.561 22.82C109.054 21.86 109.708 21.0933 110.521 20.52C111.348 19.9333 112.221 19.64 113.141 19.64C113.434 19.64 113.628 19.7 113.721 19.82C113.828 19.9267 113.914 20.1267 113.981 20.42C114.261 20.3667 114.554 20.34 114.861 20.34C115.514 20.34 115.841 20.5733 115.841 21.04C115.841 21.32 115.741 21.9867 115.541 23.04C115.234 24.5733 115.081 25.64 115.081 26.24C115.081 26.44 115.128 26.6 115.221 26.72C115.328 26.84 115.461 26.9 115.621 26.9C115.874 26.9 116.181 26.74 116.541 26.42C116.901 26.0867 117.388 25.5533 118.001 24.82C118.161 24.6333 118.341 24.54 118.541 24.54C118.714 24.54 118.848 24.62 118.941 24.78C119.048 24.94 119.101 25.16 119.101 25.44C119.101 25.9733 118.974 26.3867 118.721 26.68C118.174 27.36 117.594 27.9333 116.981 28.4C116.368 28.8667 115.774 29.1 115.201 29.1C114.761 29.1 114.354 28.9533 113.981 28.66C113.621 28.3533 113.348 27.94 113.161 27.42C112.468 28.54 111.594 29.1 110.541 29.1ZM111.261 27.08C111.554 27.08 111.834 26.9067 112.101 26.56C112.368 26.2133 112.561 25.7533 112.681 25.18L113.421 21.5C112.861 21.5133 112.341 21.7267 111.861 22.14C111.394 22.54 111.021 23.0733 110.741 23.74C110.461 24.4067 110.321 25.1133 110.321 25.86C110.321 26.2733 110.401 26.58 110.561 26.78C110.734 26.98 110.968 27.08 111.261 27.08ZM125.056 24.54C125.229 24.54 125.362 24.62 125.456 24.78C125.562 24.94 125.616 25.16 125.616 25.44C125.616 25.9733 125.489 26.3867 125.236 26.68C124.662 27.3867 124.036 27.9667 123.356 28.42C122.689 28.8733 121.929 29.1 121.076 29.1C119.902 29.1 119.029 28.5667 118.456 27.5C117.896 26.4333 117.616 25.0533 117.616 23.36C117.616 21.7333 117.822 19.88 118.236 17.8C118.662 15.72 119.282 13.9333 120.096 12.44C120.922 10.9467 121.902 10.2 123.036 10.2C123.676 10.2 124.176 10.5 124.536 11.1C124.909 11.6867 125.096 12.5333 125.096 13.64C125.096 15.2267 124.656 17.0667 123.776 19.16C122.896 21.2533 121.702 23.3267 120.196 25.38C120.289 25.9267 120.442 26.32 120.656 26.56C120.869 26.7867 121.149 26.9 121.496 26.9C122.042 26.9 122.522 26.7467 122.936 26.44C123.349 26.12 123.876 25.58 124.516 24.82C124.676 24.6333 124.856 24.54 125.056 24.54ZM122.596 12.18C122.289 12.18 121.942 12.7333 121.556 13.84C121.169 14.9467 120.829 16.32 120.536 17.96C120.242 19.6 120.082 21.1733 120.056 22.68C121.002 21.12 121.756 19.56 122.316 18C122.876 16.4267 123.156 14.9933 123.156 13.7C123.156 12.6867 122.969 12.18 122.596 12.18ZM131.579 24.54C131.752 24.54 131.886 24.62 131.979 24.78C132.086 24.94 132.139 25.16 132.139 25.44C132.139 25.9733 132.012 26.3867 131.759 26.68C131.186 27.3867 130.559 27.9667 129.879 28.42C129.212 28.8733 128.452 29.1 127.599 29.1C126.426 29.1 125.552 28.5667 124.979 27.5C124.419 26.4333 124.139 25.0533 124.139 23.36C124.139 21.7333 124.346 19.88 124.759 17.8C125.186 15.72 125.806 13.9333 126.619 12.44C127.446 10.9467 128.426 10.2 129.559 10.2C130.199 10.2 130.699 10.5 131.059 11.1C131.432 11.6867 131.619 12.5333 131.619 13.64C131.619 15.2267 131.179 17.0667 130.299 19.16C129.419 21.2533 128.226 23.3267 126.719 25.38C126.812 25.9267 126.966 26.32 127.179 26.56C127.392 26.7867 127.672 26.9 128.019 26.9C128.566 26.9 129.046 26.7467 129.459 26.44C129.872 26.12 130.399 25.58 131.039 24.82C131.199 24.6333 131.379 24.54 131.579 24.54ZM129.119 12.18C128.812 12.18 128.466 12.7333 128.079 13.84C127.692 14.9467 127.352 16.32 127.059 17.96C126.766 19.6 126.606 21.1733 126.579 22.68C127.526 21.12 128.279 19.56 128.839 18C129.399 16.4267 129.679 14.9933 129.679 13.7C129.679 12.6867 129.492 12.18 129.119 12.18ZM139.443 24.54C139.616 24.54 139.749 24.62 139.842 24.78C139.949 24.94 140.003 25.16 140.003 25.44C140.003 25.9733 139.876 26.3867 139.623 26.68C139.129 27.28 138.429 27.8333 137.523 28.34C136.629 28.8467 135.669 29.1 134.643 29.1C133.243 29.1 132.156 28.72 131.383 27.96C130.609 27.2 130.222 26.16 130.222 24.84C130.222 23.92 130.416 23.0667 130.803 22.28C131.189 21.48 131.723 20.8467 132.403 20.38C133.096 19.9133 133.876 19.68 134.743 19.68C135.516 19.68 136.136 19.9133 136.603 20.38C137.069 20.8333 137.303 21.4533 137.303 22.24C137.303 23.16 136.969 23.9533 136.303 24.62C135.649 25.2733 134.536 25.7933 132.963 26.18C133.296 26.7933 133.929 27.1 134.863 27.1C135.463 27.1 136.143 26.8933 136.903 26.48C137.676 26.0533 138.343 25.5 138.903 24.82C139.063 24.6333 139.243 24.54 139.443 24.54ZM134.403 21.64C133.909 21.64 133.489 21.9267 133.143 22.5C132.809 23.0733 132.643 23.7667 132.643 24.58V24.62C133.429 24.4333 134.049 24.1533 134.503 23.78C134.956 23.4067 135.183 22.9733 135.183 22.48C135.183 22.2267 135.109 22.0267 134.963 21.88C134.829 21.72 134.643 21.64 134.403 21.64ZM139.794 29.1C139.287 29.1 138.927 28.8333 138.714 28.3C138.514 27.7667 138.414 26.9133 138.414 25.74C138.414 24.0067 138.661 22.36 139.154 20.8C139.274 20.4133 139.467 20.1333 139.734 19.96C140.014 19.7733 140.401 19.68 140.894 19.68C141.161 19.68 141.347 19.7133 141.454 19.78C141.561 19.8467 141.614 19.9733 141.614 20.16C141.614 20.3733 141.514 20.8533 141.314 21.6C141.181 22.1333 141.074 22.6 140.994 23C140.914 23.4 140.847 23.8933 140.794 24.48C141.234 23.3333 141.727 22.4 142.274 21.68C142.821 20.96 143.354 20.4467 143.874 20.14C144.407 19.8333 144.894 19.68 145.334 19.68C146.201 19.68 146.634 20.1133 146.634 20.98C146.634 21.1533 146.574 21.5733 146.454 22.24C146.347 22.7733 146.294 23.1067 146.294 23.24C146.294 23.7067 146.461 23.94 146.794 23.94C147.167 23.94 147.647 23.6467 148.234 23.06C148.407 22.8867 148.587 22.8 148.774 22.8C148.947 22.8 149.081 22.88 149.174 23.04C149.281 23.1867 149.334 23.3867 149.334 23.64C149.334 24.1333 149.201 24.52 148.934 24.8C148.561 25.1867 148.121 25.52 147.614 25.8C147.121 26.0667 146.594 26.2 146.034 26.2C145.327 26.2 144.787 26.02 144.414 25.66C144.054 25.3 143.874 24.8133 143.874 24.2C143.874 24 143.894 23.8 143.934 23.6C143.961 23.3333 143.974 23.1533 143.974 23.06C143.974 22.8467 143.901 22.74 143.754 22.74C143.554 22.74 143.287 22.9667 142.954 23.42C142.634 23.86 142.314 24.4467 141.994 25.18C141.674 25.9133 141.414 26.6867 141.214 27.5C141.067 28.1267 140.894 28.5533 140.694 28.78C140.507 28.9933 140.207 29.1 139.794 29.1ZM154.476 19.68C154.782 19.68 154.996 19.72 155.116 19.8C155.236 19.88 155.296 20.0133 155.296 20.2C155.296 20.52 155.122 21.66 154.776 23.62C154.469 25.5 154.289 26.6133 154.236 26.96C153.742 30.3867 153.062 33.1 152.196 35.1C151.329 37.1 150.176 38.1 148.736 38.1C148.056 38.1 147.502 37.8867 147.076 37.46C146.649 37.0467 146.436 36.5 146.436 35.82C146.436 35.1933 146.576 34.5533 146.856 33.9C147.149 33.2467 147.682 32.4933 148.456 31.64C149.242 30.8 150.349 29.8333 151.776 28.74L151.836 28.28C151.929 27.7867 152.036 27.08 152.156 26.16C151.889 27.12 151.516 27.8533 151.036 28.36C150.556 28.8533 150.049 29.1 149.516 29.1C148.916 29.1 148.422 28.8267 148.036 28.28C147.662 27.72 147.476 27.0267 147.476 26.2C147.476 25.2 147.542 24.2867 147.676 23.46C147.809 22.62 148.029 21.7333 148.336 20.8C148.469 20.4 148.656 20.1133 148.896 19.94C149.136 19.7667 149.516 19.68 150.036 19.68C150.329 19.68 150.529 19.7267 150.636 19.82C150.756 19.9133 150.816 20.0533 150.816 20.24C150.816 20.3467 150.742 20.7067 150.596 21.32C150.462 21.8133 150.356 22.26 150.276 22.66C150.169 23.2067 150.076 23.7333 149.996 24.24C149.916 24.7333 149.876 25.14 149.876 25.46C149.876 25.9667 150.016 26.22 150.296 26.22C150.496 26.22 150.742 26.02 151.036 25.62C151.342 25.22 151.662 24.6133 151.996 23.8C152.342 22.9867 152.676 21.9867 152.996 20.8C153.102 20.4 153.262 20.1133 153.476 19.94C153.702 19.7667 154.036 19.68 154.476 19.68ZM148.956 36.16C149.289 36.16 149.662 35.7733 150.076 35C150.489 34.2267 150.902 32.94 151.316 31.14C150.289 32.0067 149.542 32.7933 149.076 33.5C148.622 34.22 148.396 34.8467 148.396 35.38C148.396 35.6067 148.436 35.7933 148.516 35.94C148.609 36.0867 148.756 36.16 148.956 36.16Z" fill="#E58411"/>
</svg>
