<svg width="559" height="24" viewBox="0 0 559 24" fill="none" xmlns="http://www.w3.org/2000/svg">
<path d="M0.5 12H243.5" stroke="url(#paint0_linear_284_1681)"/>
<g clip-path="url(#clip0_284_1681)">
<path d="M290.72 5.74294L287.709 1.67494C287.339 1.15727 286.85 0.735308 286.284 0.444016C285.719 0.152723 285.091 0.000492686 284.455 -5.92728e-05H274.545C273.912 -0.00065377 273.287 0.149164 272.723 0.437064C272.159 0.724964 271.671 1.14272 271.3 1.65594L268.235 5.75294C267.736 6.45663 267.478 7.30301 267.5 8.16541C267.523 9.0278 267.823 9.85983 268.358 10.5369L277.15 22.8649C277.43 23.2197 277.787 23.5062 278.194 23.7029C278.601 23.8995 279.048 24.0011 279.5 23.9999C279.96 23.999 280.413 23.8926 280.826 23.6889C281.238 23.4852 281.598 23.1896 281.878 22.8249L290.6 10.6339C291.158 9.94693 291.473 9.09403 291.495 8.20893C291.517 7.32382 291.244 6.45652 290.72 5.74294ZM286.092 2.85094L289.11 6.92894C289.126 6.95094 289.13 6.97694 289.146 6.99994H284.254L282.826 1.99994H284.455C284.776 2.00094 285.092 2.0787 285.377 2.22674C285.661 2.37479 285.907 2.58881 286.092 2.85094ZM279.5 19.1179L276.8 8.99994H282.2L279.5 19.1179ZM276.826 6.99994L278.254 1.99994H280.746L282.174 6.99994H276.826ZM272.917 2.83694C273.102 2.57833 273.347 2.36756 273.63 2.22202C273.913 2.07649 274.227 2.00037 274.545 1.99994H276.174L274.746 6.99994H269.818C269.832 6.97794 269.836 6.95094 269.852 6.92994L272.917 2.83694ZM269.948 9.32494C269.876 9.22295 269.814 9.11409 269.763 8.99994H274.732L277.726 20.2299L269.948 9.32494ZM281.271 20.2399L284.271 8.99994H289.257C289.192 9.14921 289.111 9.29049 289.014 9.42094L281.271 20.2399Z" fill="#F3A60D"/>
</g>
<path d="M315.5 12H558.5" stroke="url(#paint1_linear_284_1681)"/>
<defs>
<linearGradient id="paint0_linear_284_1681" x1="243.5" y1="11.9993" x2="0.5" y2="12" gradientUnits="userSpaceOnUse">
<stop stop-color="#F3A60D"/>
<stop offset="1" stop-color="#D39C4A"/>
</linearGradient>
<linearGradient id="paint1_linear_284_1681" x1="315.5" y1="12" x2="558.5" y2="12" gradientUnits="userSpaceOnUse">
<stop stop-color="#D39C4A"/>
<stop offset="1" stop-color="#F3A60D"/>
</linearGradient>
<clipPath id="clip0_284_1681">
<rect width="24" height="24" fill="white" transform="translate(267.5)"/>
</clipPath>
</defs>
</svg>
