<svg width="559" height="25" viewBox="0 0 559 25" fill="none" xmlns="http://www.w3.org/2000/svg">
<path d="M0.5 12.7236H243.5" stroke="#E58411"/>
<g clip-path="url(#clip0_284_1681)">
<path d="M290.72 6.46657L287.709 2.39857C287.339 1.88091 286.85 1.45894 286.284 1.16765C285.719 0.876356 285.091 0.724125 284.455 0.723574H274.545C273.912 0.722979 273.287 0.872797 272.723 1.1607C272.159 1.4486 271.671 1.86635 271.3 2.37957L268.235 6.47657C267.736 7.18026 267.478 8.02665 267.5 8.88904C267.523 9.75144 267.823 10.5835 268.358 11.2606L277.15 23.5886C277.43 23.9434 277.787 24.2299 278.194 24.4265C278.601 24.6231 279.048 24.7247 279.5 24.7236C279.96 24.7227 280.413 24.6162 280.826 24.4125C281.238 24.2088 281.598 23.9133 281.878 23.5486L290.6 11.3576C291.158 10.6706 291.473 9.81767 291.495 8.93256C291.517 8.04745 291.244 7.18015 290.72 6.46657ZM286.092 3.57457L289.11 7.65257C289.126 7.67457 289.13 7.70057 289.146 7.72357H284.254L282.826 2.72357H284.455C284.776 2.72457 285.092 2.80233 285.377 2.95038C285.661 3.09842 285.907 3.31244 286.092 3.57457ZM279.5 19.8416L276.8 9.72357H282.2L279.5 19.8416ZM276.826 7.72357L278.254 2.72357H280.746L282.174 7.72357H276.826ZM272.917 3.56057C273.102 3.30196 273.347 3.09119 273.63 2.94566C273.913 2.80012 274.227 2.724 274.545 2.72357H276.174L274.746 7.72357H269.818C269.832 7.70157 269.836 7.67457 269.852 7.65357L272.917 3.56057ZM269.948 10.0486C269.876 9.94659 269.814 9.83773 269.763 9.72357H274.732L277.726 20.9536L269.948 10.0486ZM281.271 20.9636L284.271 9.72357H289.257C289.192 9.87284 289.111 10.0141 289.014 10.1446L281.271 20.9636Z" fill="#E58411"/>
</g>
<path d="M315.5 12.7236H558.5" stroke="#E58411"/>
<defs>
<clipPath id="clip0_284_1681">
<rect width="24" height="24" fill="white" transform="translate(267.5 0.723633)"/>
</clipPath>
</defs>
</svg>
